HIERARCHY
ROOT Hips
{
	OFFSET -3.958830 18.904000 13.208200
	CHANNELS 6 Xposition Yposition Zposition Zrotation Yrotation Xrotation 
	JOINT LHipJoint
	{
		OFFSET 0.000000 0.000000 0.000000
		CHANNELS 3 Zrotation Yrotation Xrotation
		JOINT LeftUpLeg
		{
			OFFSET 1.800000 -1.400000 0.085000
			CHANNELS 3 Zrotation Yrotation Xrotation
			JOINT LeftLeg
			{
				OFFSET 2.215000 -6.000000 0.000000
				CHANNELS 3 Zrotation Yrotation Xrotation
				JOINT LeftFoot
				{
					OFFSET 2.500000 -6.900000 0.000000
					CHANNELS 3 Zrotation Yrotation Xrotation
					JOINT LeftToeBase
					{
						OFFSET 0.200000 -0.500000 1.950000
						CHANNELS 3 Zrotation Yrotation Xrotation
						End Site
						{
							OFFSET 0.000000 0.000000 0.000000
						}
					}
				}
			}
		}
	}
	JOINT RHipJoint
	{
		OFFSET 0.000000 0.000000 0.000000
		CHANNELS 3 Zrotation Yrotation Xrotation
		JOINT RightUpLeg
		{
			OFFSET -1.800000 -1.400000 0.085000
			CHANNELS 3 Zrotation Yrotation Xrotation
			JOINT RightLeg
			{
				OFFSET -2.215000 -6.000000 0.000000
				CHANNELS 3 Zrotation Yrotation Xrotation
				JOINT RightFoot
				{
					OFFSET -2.500000 -6.900000 0.000000
					CHANNELS 3 Zrotation Yrotation Xrotation
					JOINT RightToeBase
					{
						OFFSET -0.200000 -0.500000 1.950000
						CHANNELS 3 Zrotation Yrotation Xrotation
						End Site
						{
							OFFSET 0.000000 0.000000 0.000000
						}
					}
				}
			}
		}
	}
	JOINT LowerBack
	{
		OFFSET 0.000000 0.000000 0.000000
		CHANNELS 3 Zrotation Yrotation Xrotation
		JOINT Spine
		{
			OFFSET -0.087000 1.940000 -0.288900
			CHANNELS 3 Zrotation Yrotation Xrotation
			JOINT Spine1
			{
				OFFSET 0.000000 1.950000 0.060000
				CHANNELS 3 Zrotation Yrotation Xrotation
				JOINT Neck
				{
					OFFSET 0.000000 0.000000 0.000000
					CHANNELS 3 Zrotation Yrotation Xrotation
					JOINT Neck1
					{
						OFFSET 0.000000 1.600000 0.340000
						CHANNELS 3 Zrotation Yrotation Xrotation
						JOINT Head
						{
							OFFSET 0.000000 1.667000 -0.240000
							CHANNELS 3 Zrotation Yrotation Xrotation
							End Site
							{
								OFFSET 0.000000 0.000000 0.000000
							}
						}
					}
				}
				JOINT LeftShoulder
				{
					OFFSET 0.000000 0.000000 0.000000
					CHANNELS 3 Zrotation Yrotation Xrotation
					JOINT LeftArm
					{
						OFFSET 2.700000 1.550000 -0.730000
						CHANNELS 3 Zrotation Yrotation Xrotation
						JOINT LeftForeArm
						{
							OFFSET 5.450000 0.000000 0.000000
							CHANNELS 3 Zrotation Yrotation Xrotation
							JOINT LeftHand
							{
								OFFSET 3.450000 0.000000 0.000000
								CHANNELS 3 Zrotation Yrotation Xrotation
								JOINT LeftHandIndex1
								{
									OFFSET 0.750000 0.000000 0.000000
									CHANNELS 3 Zrotation Yrotation Xrotation
									End Site
									{
										OFFSET 0.000000 0.000000 0.000000
									}
								}
							}
						}
					}
				}
				JOINT RightShoulder
				{
					OFFSET 0.000000 0.000000 0.000000
					CHANNELS 3 Zrotation Yrotation Xrotation
					JOINT RightArm
					{
						OFFSET -2.700000 1.550000 -0.730000
						CHANNELS 3 Zrotation Yrotation Xrotation
						JOINT RightForeArm
						{
							OFFSET -5.450000 0.000000 0.000000
							CHANNELS 3 Zrotation Yrotation Xrotation
							JOINT RightHand
							{
								OFFSET -3.450000 0.000000 0.000000
								CHANNELS 3 Zrotation Yrotation Xrotation
								JOINT RightHandIndex1
								{
									OFFSET -0.750000 0.000000 0.000000
									CHANNELS 3 Zrotation Yrotation Xrotation
									End Site
									{
										OFFSET 0.000000 0.000000 0.000000
									}
								}
							}
						}
					}
				}
			}
		}
	}
}
MOTION
Frames: 4
Frame Time: 0.016667
0.736570 16.321950 -3.079620 -64.977323 63.774456 -34.322360 -15.786048 6.462787 8.187723 28.819056 -8.685602 -86.101574 4.720165 7.151974 49.998882 -0.742713 9.073325 1.075560 1.351460 0.815970 1.112920 19.113039 -4.236674 5.940050 -70.235263 10.994174 -36.197705 28.806904 4.716574 -13.000817 -1.382764 -5.137720 2.052290 0.701020 -0.078580 0.203710 -3.417610 -1.983175 -11.607346 17.367286 -13.454988 77.779967 -16.482257 0.916367 17.169471 13.409848 -6.226944 -20.913586 -37.368463 17.576191 70.824196 16.860510 -14.739610 -39.656170 -24.295325 -40.390133 7.064753 -34.347653 -35.267451 -28.400493 -28.334192 -59.037168 1.900691 -1.451521 3.204215 1.537610 -0.627600 0.615080 0.247980 -1.927310 49.286030 1.341302 0.152749 29.789358 -13.859486 -10.828010 15.680783 -1.404264 2.079470 -0.601989 -0.349440 0.898530 -0.185700 -0.287240 
0.740910 16.305260 -3.087450 -60.577548 63.630023 -29.458399 -15.743305 6.808876 8.431650 27.868428 -8.478130 -86.970593 4.342458 7.493714 50.078978 -0.697358 9.145048 1.026875 1.412810 0.953900 1.019040 19.078666 -4.899966 5.192369 -64.747028 8.071483 -47.020201 24.078235 -1.436825 2.501043 -1.035305 -4.198056 2.341826 0.785890 -0.023360 0.241870 -3.431486 -1.549389 -11.292807 18.297669 -12.864454 75.581679 -16.454549 0.506702 21.612289 13.499448 -7.485097 -20.742067 -39.881042 17.648679 65.240583 17.929590 -15.834560 -39.693090 -22.244889 -40.316618 6.809605 -32.868226 -32.865372 -31.844076 -38.603929 -60.414250 6.328729 -0.756890 3.698013 1.417740 -0.596490 0.587060 0.299310 -4.074690 49.205533 1.497911 1.277636 31.577645 -15.259647 -14.044454 15.748023 -2.370701 2.089111 -0.822458 -0.264050 0.889850 -0.182950 -0.181280 
0.693670 16.277940 -3.056900 -51.244550 60.604012 -16.828055 -15.843271 6.625028 8.605793 32.474214 -4.724092 -88.337979 -0.186501 10.751996 49.107123 -0.521141 9.665672 0.821046 1.575170 1.182650 1.088950 19.062787 -4.361244 5.447479 -59.486101 4.658161 -61.336609 16.209259 -4.712326 14.851150 -0.965809 -3.657508 2.542287 0.889310 -0.121190 0.277670 -3.178799 -1.821964 -11.603379 13.944345 -6.841963 73.497472 -13.058110 3.435499 25.973583 12.527308 -7.390598 -23.365508 -40.572417 16.677592 62.420671 16.278350 -14.846980 -38.507950 -25.239295 -42.060693 4.560825 -27.254059 -35.090668 -33.969940 -34.720046 -55.923174 4.732783 -0.642430 3.819369 1.307720 -0.599250 0.630950 0.351720 0.266221 53.065608 5.096679 0.848817 28.732028 -19.185434 -10.327212 19.959653 -2.114545 1.853864 -1.041411 -0.125320 0.783850 -0.303880 -0.151980 
0.620900 16.315220 -3.078820 -49.755382 53.292777 -12.133730 -15.821915 6.099115 8.534857 39.096272 2.672446 -86.409193 -3.360302 14.009624 46.896843 0.005743 10.032828 0.710501 1.865820 1.608360 1.255690 19.203379 -3.527084 6.304759 -67.081265 3.348693 -66.083778 29.639038 -2.296299 7.853241 -1.328015 -4.269546 2.371365 0.935450 -0.406580 0.369550 -3.183118 -1.744987 -12.061204 10.954809 -3.015156 74.966034 -11.255354 6.999706 23.775289 11.018157 -7.079647 -25.186453 -40.985544 16.975769 62.307423 13.935250 -12.742430 -38.544620 -28.552559 -43.039271 2.123162 -26.195633 -35.671983 -31.512374 -21.845497 -51.316541 0.461060 -1.221452 3.729614 1.125660 -0.692470 0.842520 0.486280 6.558301 55.864242 7.926788 1.599925 29.011638 -20.969655 -4.732301 22.158846 -1.397376 1.935358 -1.308506 0.251510 0.497020 -0.638450 -0.051800 
